<mxfile host="65bd71144e" modified="2020-10-25T10:00:13.550Z" agent="5.0 (Macintosh; Intel Mac OS X 10_15_7) AppleWebKit/537.36 (KHTML, like Gecko) Code/1.50.1 Chrome/83.0.4103.122 Electron/9.2.1 Safari/537.36" etag="pxNw2gSSRY3X-uX0PkRR" version="13.6.5">
    <diagram id="PfbArisPY-YpvNoP2OnN" name="Page-1">
        <mxGraphModel dx="738" dy="489" grid="1" gridSize="10" guides="1" tooltips="1" connect="1" arrows="1" fold="1" page="1" pageScale="1" pageWidth="850" pageHeight="1100" math="0" shadow="0">
            <root>
                <mxCell id="0"/>
                <mxCell id="1" parent="0"/>
                <mxCell id="Tb7vl3lsIZW_g4UYziJH-3" value="Hệ thống" style="shape=umlLifeline;perimeter=lifelinePerimeter;whiteSpace=wrap;html=1;container=1;collapsible=0;recursiveResize=0;outlineConnect=0;" parent="1" vertex="1">
                    <mxGeometry x="485" y="80" width="100" height="350" as="geometry"/>
                </mxCell>
                <mxCell id="Tb7vl3lsIZW_g4UYziJH-16" value="" style="html=1;points=[];perimeter=orthogonalPerimeter;" parent="1" vertex="1">
                    <mxGeometry x="530" y="150" width="10" height="220" as="geometry"/>
                </mxCell>
                <mxCell id="Tb7vl3lsIZW_g4UYziJH-1" value="" style="shape=umlLifeline;participant=umlActor;perimeter=lifelinePerimeter;whiteSpace=wrap;html=1;container=1;collapsible=0;recursiveResize=0;verticalAlign=top;spacingTop=36;outlineConnect=0;" parent="1" vertex="1">
                    <mxGeometry x="300" y="80" width="20" height="350" as="geometry"/>
                </mxCell>
                <mxCell id="Tb7vl3lsIZW_g4UYziJH-15" value="" style="html=1;points=[];perimeter=orthogonalPerimeter;" parent="Tb7vl3lsIZW_g4UYziJH-1" vertex="1">
                    <mxGeometry x="5" y="70" width="10" height="220" as="geometry"/>
                </mxCell>
                <mxCell id="Tb7vl3lsIZW_g4UYziJH-2" value="Database" style="shape=umlLifeline;perimeter=lifelinePerimeter;whiteSpace=wrap;html=1;container=1;collapsible=0;recursiveResize=0;outlineConnect=0;" parent="1" vertex="1">
                    <mxGeometry x="710" y="80" width="100" height="350" as="geometry"/>
                </mxCell>
                <mxCell id="Tb7vl3lsIZW_g4UYziJH-17" value="" style="html=1;points=[];perimeter=orthogonalPerimeter;" parent="Tb7vl3lsIZW_g4UYziJH-2" vertex="1">
                    <mxGeometry x="45" y="180" width="10" height="40" as="geometry"/>
                </mxCell>
                <mxCell id="Tb7vl3lsIZW_g4UYziJH-4" value="Khách hàng của rạp" style="text;html=1;strokeColor=none;fillColor=none;align=center;verticalAlign=middle;whiteSpace=wrap;rounded=0;" parent="1" vertex="1">
                    <mxGeometry x="270" y="50" width="80" height="20" as="geometry"/>
                </mxCell>
                <mxCell id="Tb7vl3lsIZW_g4UYziJH-5" value="Gửi yêu cầu thanh toán" style="html=1;verticalAlign=bottom;endArrow=block;" parent="1" edge="1">
                    <mxGeometry width="80" relative="1" as="geometry">
                        <mxPoint x="309.5" y="160" as="sourcePoint"/>
                        <mxPoint x="534.5" y="160" as="targetPoint"/>
                    </mxGeometry>
                </mxCell>
                <mxCell id="Tb7vl3lsIZW_g4UYziJH-6" value="Gọi API Momo" style="html=1;verticalAlign=bottom;endArrow=block;rounded=0;" parent="1" target="Tb7vl3lsIZW_g4UYziJH-3" edge="1">
                    <mxGeometry x="0.0709" width="80" relative="1" as="geometry">
                        <mxPoint x="534.5" y="170" as="sourcePoint"/>
                        <mxPoint x="534.5" y="190" as="targetPoint"/>
                        <Array as="points">
                            <mxPoint x="590" y="170"/>
                            <mxPoint x="590" y="200"/>
                        </Array>
                        <mxPoint y="1" as="offset"/>
                    </mxGeometry>
                </mxCell>
                <mxCell id="Tb7vl3lsIZW_g4UYziJH-7" value="alt" style="shape=umlFrame;whiteSpace=wrap;html=1;" parent="1" vertex="1">
                    <mxGeometry x="175" y="210" width="605" height="200" as="geometry"/>
                </mxCell>
                <mxCell id="Tb7vl3lsIZW_g4UYziJH-8" value="" style="line;strokeWidth=1;fillColor=none;align=left;verticalAlign=middle;spacingTop=-1;spacingLeft=3;spacingRight=3;rotatable=0;labelPosition=right;points=[];portConstraint=eastwest;" parent="1" vertex="1">
                    <mxGeometry x="175" y="310" width="605" height="8" as="geometry"/>
                </mxCell>
                <mxCell id="Tb7vl3lsIZW_g4UYziJH-9" value="checkout thành công" style="html=1;verticalAlign=bottom;endArrow=open;dashed=1;endSize=8;" parent="1" edge="1">
                    <mxGeometry relative="1" as="geometry">
                        <mxPoint x="534.5" y="260" as="sourcePoint"/>
                        <mxPoint x="309.5" y="260" as="targetPoint"/>
                    </mxGeometry>
                </mxCell>
                <mxCell id="Tb7vl3lsIZW_g4UYziJH-10" value="Lưu thông tin&amp;nbsp;" style="html=1;verticalAlign=bottom;endArrow=open;endFill=0;" parent="1" edge="1">
                    <mxGeometry width="80" relative="1" as="geometry">
                        <mxPoint x="534.5" y="280" as="sourcePoint"/>
                        <mxPoint x="759.5" y="280" as="targetPoint"/>
                    </mxGeometry>
                </mxCell>
                <mxCell id="Tb7vl3lsIZW_g4UYziJH-11" value="checkout không thành công" style="html=1;verticalAlign=bottom;endArrow=open;dashed=1;endSize=8;" parent="1" edge="1">
                    <mxGeometry relative="1" as="geometry">
                        <mxPoint x="535" y="360" as="sourcePoint"/>
                        <mxPoint x="310" y="360" as="targetPoint"/>
                    </mxGeometry>
                </mxCell>
                <mxCell id="Tb7vl3lsIZW_g4UYziJH-13" value="[Momo báo thành công]" style="text;html=1;strokeColor=none;fillColor=none;align=center;verticalAlign=middle;whiteSpace=wrap;rounded=0;" parent="1" vertex="1">
                    <mxGeometry x="200" y="261" width="80" height="20" as="geometry"/>
                </mxCell>
                <mxCell id="Tb7vl3lsIZW_g4UYziJH-14" value="[Momo báo không thành công]" style="text;html=1;strokeColor=none;fillColor=none;align=center;verticalAlign=middle;whiteSpace=wrap;rounded=0;" parent="1" vertex="1">
                    <mxGeometry x="190" y="340" width="100" height="20" as="geometry"/>
                </mxCell>
            </root>
        </mxGraphModel>
    </diagram>
</mxfile>